PathFileType	4	(X/Y/Z)	 s01c0101.trc
DataRate	CameraRate	NumFrames	NumMarkers	Units	OrigDataRate	OrigDataStartFrame	OrigNumFrames
200	200	4	47	mm	200	1001	2000
Frame#	Time	racr			lacr			c7			jug			rlel			rdr			llel			ldr			s2			lic			ric			lasi			rasi			rpsi			lpsi			rgt			lgt			rth1			rth2			rth3			rth4			rlfc			rsh1			rsh2			rsh3			rsh4			rlmal			rmmal			rcal			rtoe			rmt5			lth1			lth2			lth4			lth3			llfc			lsh1			lsh2			lsh3			lsh4			llmal			lcal			ltoe			lmt5			SBIKE			LBIKE			RBIKE			
		X1	Y1	Z1	X2	Y2	Z2	X3	Y3	Z3	X4	Y4	Z4	X5	Y5	Z5	X6	Y6	Z6	X7	Y7	Z7	X8	Y8	Z8	X9	Y9	Z9	X10	Y10	Z10	X11	Y11	Z11	X12	Y12	Z12	X13	Y13	Z13	X14	Y14	Z14	X15	Y15	Z15	X16	Y16	Z16	X17	Y17	Z17	X18	Y18	Z18	X19	Y19	Z19	X20	Y20	Z20	X21	Y21	Z21	X22	Y22	Z22	X23	Y23	Z23	X24	Y24	Z24	X25	Y25	Z25	X26	Y26	Z26	X27	Y27	Z27	X28	Y28	Z28	X29	Y29	Z29	X30	Y30	Z30	X31	Y31	Z31	X32	Y32	Z32	X33	Y33	Z33	X34	Y34	Z34	X35	Y35	Z35	X36	Y36	Z36	X37	Y37	Z37	X38	Y38	Z38	X39	Y39	Z39	X40	Y40	Z40	X41	Y41	Z41	X42	Y42	Z42	X43	Y43	Z43	X44	Y44	Z44	X45	Y45	Z45	X46	Y46	Z46	X47	Y47	Z47	
1001	5.0050	507.285680	1325.635857	-114.824833	515.781214	1314.459012	-418.816583	466.266686	1391.687326	-259.784200	465.486730	1229.596775	-261.515738	567.869160	1064.250544	-5.733927	724.113042	852.504132	-53.254706	513.037911	1037.915778	-534.754408	702.379888	882.253192	-438.383735	-62.912238	1174.114087	-220.302887	92.472587	1198.657598	-408.230192	112.772561	1172.187617	-85.289232	93.266007	1141.226677	-389.615491	135.041802	1128.646030	-117.057655	-28.241569	1212.067052	-169.168073	-42.672774	1222.703581	-273.868525	67.078081	1056.125801	-52.692398	40.123935	1067.804118	-432.140707	164.579970	968.227922	-50.623966	228.885045	916.372304	-55.918395	294.021174	854.327795	-68.878384	263.387798	956.289189	-71.673358	343.976842	757.678484	-93.604188	268.579711	670.105035	-64.295313	223.164091	598.788558	-69.100711	170.321934	527.925497	-76.484070	265.038375	571.498120	-103.695812	94.498413	442.617388	-91.096402	134.074013	427.409023	-169.488522	57.951276	464.210577	-147.527630	175.318158	218.894037	-134.966595	98.255138	294.281985	-66.043082	133.463582	972.568460	-444.055302	214.703056	941.880996	-437.946784	236.893954	991.173679	-431.467656	289.894898	901.818853	-425.085444	372.676567	824.658625	-406.490241	327.403171	716.336039	-436.763333	313.444019	630.788063	-432.924457	296.479391	547.101769	-422.351268	368.432138	623.375509	-406.020567	271.697752	422.239612	-409.553256	224.044559	380.509918	-368.581425	500.216105	389.884826	-370.846519	400.324154	354.262823	-439.257835	-223.023556	893.726497	-248.252521	-12.053485	84.320106	-453.405397	-20.134785	80.605614	-53.430017	
1002	5.0100	507.427764	1325.423702	-115.655780	516.316056	1314.047308	-418.847299	466.335591	1391.399716	-260.374335	465.693312	1229.276003	-261.693772	567.321155	1064.077598	-5.450216	723.976355	852.671405	-53.168391	513.090711	1037.839203	-535.336351	702.405808	882.027908	-438.534960	-63.054846	1173.260712	-221.282622	92.544004	1195.828429	-409.323847	112.564016	1172.470028	-86.416020	93.713306	1139.982360	-390.941561	135.095178	1129.171014	-117.839205	-28.552671	1211.828625	-170.442569	-42.717149	1221.358573	-275.205563	68.001165	1057.381423	-52.826455	40.365439	1065.047132	-432.298806	167.521022	971.432462	-50.307027	232.883956	920.864079	-56.004058	298.896283	860.225033	-69.065869	266.270035	961.436344	-72.849106	349.752085	764.473764	-94.987576	273.293861	677.681634	-64.636626	226.822450	607.064032	-69.460974	172.974195	536.972608	-76.657828	268.134400	579.201827	-104.294008	95.353418	453.154104	-91.167833	133.854653	437.184136	-170.022158	58.616898	475.109469	-147.665052	173.452664	228.614415	-134.997631	97.343307	304.858649	-66.056698	132.201634	968.017868	-444.154993	213.187873	935.620117	-437.736627	236.597611	984.242451	-431.429383	287.464688	894.080595	-424.243223	367.590744	815.027886	-406.085895	322.769510	706.584438	-436.852826	310.480929	620.815564	-433.008758	295.464072	536.743286	-421.948263	365.887943	614.387093	-406.580973	272.300054	411.002044	-409.693661	225.274802	369.314720	-368.891075	501.473962	379.058148	-370.663704	401.774590	343.192311	-439.226492	-223.012723	893.715540	-248.292450	-12.054577	84.329939	-453.428582	-20.117082	80.621944	-53.440596	
1003	5.0150	507.513159	1325.228340	-116.326847	516.756006	1313.541049	-418.935104	466.356425	1391.113646	-261.066983	465.893089	1228.905112	-261.923778	566.676350	1063.819214	-5.083691	723.845942	852.781138	-53.115214	513.233228	1037.689332	-536.019026	702.416216	881.741631	-438.679619	-63.151932	1172.469058	-222.367132	92.524476	1193.199084	-410.565693	112.549909	1172.858139	-86.589523	93.778980	1138.537740	-392.063636	135.157217	1129.696767	-118.631591	-28.826079	1211.524542	-171.848578	-42.691416	1220.223388	-276.509132	68.743301	1058.668456	-53.010371	40.660020	1062.500080	-432.534672	170.290696	974.604496	-50.321457	236.934285	925.615253	-56.217618	304.146156	866.538748	-69.274302	269.288838	966.656134	-74.771520	355.521858	771.730589	-95.726758	278.103004	685.441815	-64.942978	230.570377	615.488697	-69.809400	175.790251	546.090007	-76.998769	271.293412	587.229251	-104.956274	96.319036	464.043027	-91.688004	133.369368	446.844777	-170.039653	59.301958	485.988550	-147.901029	172.448943	238.786122	-135.033334	96.937066	315.630940	-66.077535	130.768062	963.393693	-444.332526	211.290994	929.172222	-437.540040	235.650952	977.339251	-431.176136	284.717350	886.147424	-423.399967	362.255271	805.679034	-405.636823	317.941096	696.784234	-437.230895	307.187750	610.820856	-433.023707	293.282977	526.839060	-422.803686	362.841146	605.448412	-407.218812	272.306360	400.042843	-409.839186	225.957012	358.347611	-369.129595	502.373733	367.843435	-370.352377	402.506350	332.087274	-439.241171	-223.035383	893.682381	-248.359969	-12.072644	84.318633	-453.363989	-20.123346	80.615717	-53.466596	
1004	5.0200	507.553487	1324.990338	-116.972880	517.275537	1313.016037	-419.177449	466.397820	1390.844875	-261.794625	466.031775	1228.505310	-262.185489	566.149255	1063.538204	-4.731318	723.679259	852.874081	-53.107721	513.529626	1037.535510	-536.812454	702.456896	881.375745	-438.817543	-63.161588	1171.576421	-223.537824	92.216826	1190.694956	-411.855647	112.128213	1173.376375	-87.618833	94.453738	1137.265594	-393.579382	135.152819	1130.294493	-119.465292	-28.983337	1211.211873	-173.338901	-42.492408	1218.998559	-277.913444	69.658276	1060.031599	-53.164769	40.932185	1060.124422	-432.869508	172.964067	977.995383	-50.541237	240.839253	930.564336	-56.564916	309.357505	873.292426	-69.985437	271.914569	972.356145	-76.174922	361.323694	779.173417	-96.428238	282.990727	693.327605	-65.251740	234.390649	624.006110	-70.176360	178.595742	555.457581	-77.378748	274.527781	595.337272	-105.662640	95.718029	475.757257	-90.806231	133.631033	456.979804	-170.455112	59.927153	496.847298	-148.185236	172.211241	249.293533	-135.030014	97.049326	326.548870	-66.130929	129.121608	958.731390	-444.574386	209.111851	922.667735	-437.426309	234.829283	970.662717	-430.258869	281.625044	878.074222	-422.597489	356.720291	796.436073	-405.230739	313.104352	686.965273	-437.840768	303.579137	600.971062	-433.257148	291.454121	516.472988	-421.174277	359.374050	596.564903	-407.783015	271.821961	389.299695	-410.014251	225.992702	347.756642	-369.483985	502.440523	356.887550	-370.691925	402.684535	321.027587	-439.297129	-223.052804	893.682375	-248.426531	-12.051548	84.319029	-453.393559	-20.133242	80.609834	-53.456003	
